<svg width="99" height="90" viewBox="0 0 99 90" fill="none" xmlns="http://www.w3.org/2000/svg">
    <g clip-path="url(#clip0_415:488)">
        <path fill-rule="evenodd" clip-rule="evenodd"
            d="M50.2116 81.1785L54.2757 79.4736C54.0499 78.8987 53.3824 78.5023 52.5872 78.5023C51.5712 78.4973 50.1625 79.4042 50.2116 81.1785ZM54.9824 82.8288L56.5335 83.8696C56.0328 84.6179 54.8303 85.9065 52.7443 85.9065C50.1625 85.9065 48.2974 83.8894 48.2974 81.3172C48.2974 78.5865 50.1772 76.728 52.5234 76.728C54.6781 76.8024 56.0181 78.2049 56.6218 80.1675L50.5355 82.7049C51.0018 83.6267 51.7234 84.0975 52.7394 84.0975C53.7505 84.0975 54.4573 83.592 54.9726 82.8288H54.9824ZM45.107 85.6289H47.1047V72.1487H45.107V85.6289ZM41.8479 81.3321C41.8479 79.7165 40.7779 78.532 39.4183 78.532C38.044 78.532 36.8856 79.7165 36.8856 81.3321C36.8856 82.9329 38.0391 84.0975 39.4183 84.0975C40.7828 84.0975 41.8479 82.9329 41.8479 81.3321ZM43.6051 77.0056V85.2325C43.6051 88.6223 41.627 90.015 39.2858 90.015C37.082 90.015 35.7567 88.5183 35.2561 87.304L36.9936 86.5755C37.3028 87.3239 38.0636 88.211 39.2858 88.211C41.519 87.9548 41.7154 86.4962 41.7154 84.8558H41.6418C41.1951 85.4109 40.3312 85.9015 39.2465 85.9015C36.974 85.9015 34.888 83.9043 34.888 81.3272C34.888 78.7352 36.9691 76.7181 39.2465 76.7181C40.3312 76.7181 41.1951 77.2038 41.6418 77.744H41.7105V76.9956C41.7105 76.9907 43.6051 76.9907 43.6051 76.9907V77.0056ZM21.8123 81.3172C21.8123 79.6669 20.6441 78.5369 19.2944 78.5369C17.9397 78.5369 16.7764 79.6669 16.7764 81.3172C16.7764 82.9527 17.9446 84.0975 19.2944 84.0975C20.6441 84.0975 21.8123 82.9478 21.8123 81.3172ZM23.7756 81.3172C23.7756 83.9588 21.7632 85.9065 19.2944 85.9065C16.8255 85.9065 14.8131 83.9588 14.8131 81.3172C14.8131 78.6559 16.8255 76.728 19.2944 76.728C21.7632 76.728 23.7756 78.6559 23.7756 81.3172ZM31.8743 81.3172C31.8743 79.6669 30.7061 78.5369 29.3563 78.5369C28.0016 78.5369 26.8384 79.6669 26.8384 81.3172C26.8384 82.9527 28.0065 84.0975 29.3563 84.0975C30.7061 84.0975 31.8743 82.9478 31.8743 81.3172ZM33.8376 81.3172C33.8376 83.9588 31.8252 85.9065 29.3563 85.9065C26.8875 85.9065 24.8751 83.9588 24.8751 81.3172C24.8751 78.6559 26.8875 76.728 29.3563 76.728C31.8252 76.728 33.8376 78.6559 33.8376 81.3172ZM7.13655 85.9065C3.24919 85.9065 -0.029541 82.7049 -0.029541 78.7699C-0.029541 74.8398 3.24428 71.6333 7.13655 71.6333C9.29128 71.6333 10.8227 72.4857 11.9761 73.6008L10.6165 74.9736C9.79193 74.1906 8.67284 73.581 7.13655 73.581C4.29465 73.581 2.08102 75.8954 2.08102 78.7352C2.08102 81.6047 4.30447 83.8894 7.13655 83.8894C8.97715 83.8894 10.0275 83.141 10.7 82.4621C11.2497 81.907 11.6129 81.1041 11.7503 80.0089H7.13655V78.0612H13.6155C13.6842 78.4081 13.7185 78.8244 13.7185 79.2754C13.7185 80.7374 13.321 82.5463 12.0497 83.8299C10.8128 85.1432 9.22747 85.842 7.14146 85.842"
            fill="currentColor" />
        <path
            d="M61.3113 85.5268V73.543H62.844L66.9659 80.842H67.0281L71.1499 73.543H72.6827V85.5268H71.1504L71.2126 76.4082H71.1504L67.4428 82.9752H66.5521L62.8445 76.4082H62.7824C62.8955 79.4412 62.8445 82.4942 62.8445 85.5268H61.3113ZM77.4674 85.7359C76.5974 85.7359 75.8932 85.4849 75.3132 84.983C74.7333 84.481 74.4433 83.8118 74.4433 82.9957C74.4433 82.0963 74.7954 81.4062 75.4789 80.9042C76.1625 80.4023 77.0117 80.1513 78.0059 80.1513C78.8966 80.1513 79.6422 80.3186 80.2015 80.6533C80.1866 78.9137 78.996 78.4364 78.068 78.4364C77.1919 78.4784 76.4317 78.8484 76.121 79.6285L74.7333 79.022C74.9197 78.5409 75.2925 78.0803 75.8518 77.6626C76.411 77.2448 77.136 77.0351 78.0473 77.0351C79.083 77.0351 79.9529 77.3488 80.6364 77.9553C81.32 78.5619 81.6721 79.4403 81.6721 80.5487V85.5053H80.2222V84.376C79.5449 85.2335 78.6294 85.7171 77.4674 85.7359ZM80.2015 81.9295C79.3088 81.2435 77.4467 81.1578 76.5767 81.8668C75.8932 82.536 75.8207 83.4333 76.5353 83.9582C78.2628 85.0771 80.2636 83.3349 80.2015 81.9295ZM87.6167 85.7359C86.9953 85.7359 86.4361 85.6104 85.9597 85.3385C85.4833 85.0666 85.1104 84.732 84.8619 84.3347H84.779L84.8412 85.464V89.0822H83.3291V77.2657H84.779V78.395H84.8412C85.0897 77.9977 85.4419 77.6631 85.939 77.3912C86.4361 77.1193 86.9953 76.9938 87.596 76.9938C88.6524 76.9938 89.543 77.4121 90.3094 78.2486C91.0758 79.0852 91.4481 80.1309 91.4481 81.3648C91.4481 82.5988 91.0753 83.6445 90.3094 84.4811C89.5637 85.3176 88.6524 85.7359 87.6167 85.7359ZM87.3682 84.3137C88.0724 84.3137 88.6731 84.0419 89.1909 83.4981C89.7087 82.9543 89.9573 82.2432 89.9573 81.3439C89.9573 80.4446 89.7087 79.7335 89.1909 79.1898C88.6731 78.646 88.0724 78.3741 87.3682 78.3741C86.6432 78.3741 86.0425 78.646 85.5454 79.1689C85.0483 79.7126 84.7998 80.4237 84.7998 81.323C84.7998 82.2223 85.0483 82.9543 85.5454 83.4772C86.0425 84.0628 86.6432 84.3137 87.3682 84.3137ZM95.9019 85.7359C94.9905 85.7359 94.2449 85.5058 93.6649 85.0666C93.0642 84.6275 92.65 84.0628 92.36 83.3935L93.727 82.8288C94.162 83.8536 94.887 84.3765 95.9226 84.3765C96.399 84.3765 96.7925 84.2724 97.0825 84.0628C97.3932 83.8536 97.5382 83.5817 97.5382 83.2262C97.5382 82.6824 97.1654 82.3269 96.4197 82.1387L94.7834 81.7413C94.2656 81.6158 93.7685 81.3439 93.3128 80.9884C92.8571 80.6329 92.6085 80.11 92.6085 79.4826C92.6085 78.7506 92.9192 78.165 93.5613 77.7258C94.2034 77.2657 94.9491 77.0565 95.819 77.0565C96.544 77.0565 97.1861 77.2239 97.7453 77.5585C98.3046 77.8931 98.7188 78.3532 98.9467 78.9806L97.6211 79.5244C97.3311 78.7924 96.7097 78.4369 95.7569 78.4369C95.3012 78.4369 94.9284 78.5409 94.6182 78.7297C94.308 78.9184 94.1625 79.1689 94.1625 79.5035C94.1625 79.9636 94.5146 80.2982 95.2396 80.4655L96.8552 80.842C97.6216 81.0302 98.1808 81.323 98.5536 81.7622C98.9265 82.2014 99.0922 82.6824 99.0922 83.2262C99.0922 83.9582 98.8022 84.5856 98.2015 85.0666C97.6216 85.4849 96.8547 85.7359 95.9019 85.7359Z"
            fill="currentColor" />
        <path
            d="M40.7878 45.0941C42.6481 47.4432 44.5427 50.397 45.5341 52.1811C46.7416 54.5005 47.2422 56.0666 48.1404 58.8716C48.6656 60.408 49.1663 60.8739 50.2166 60.8739C51.3652 60.8739 51.8904 60.0908 52.2929 58.8716C53.1322 56.24 53.7801 54.2378 54.8059 52.3298C58.762 44.7968 65.2114 39.4443 68.8436 32.1095C68.8436 32.1095 71.2339 27.6294 71.2339 21.3551C71.2339 15.5071 68.8779 11.4432 68.8779 11.4432L40.8026 45.1437L40.7878 45.0941Z"
            fill="#34A853" />
        <path
            d="M31.2658 31.3167C33.5285 36.5205 37.8429 41.0799 40.7879 45.0942L56.3962 26.4103C56.3962 26.4103 54.1924 29.3244 50.2118 29.3244C45.7747 29.3244 42.1622 25.7561 42.1622 21.2462C42.1622 18.1438 43.993 15.9929 43.993 15.9929C32.5076 17.7176 33.1457 20.5276 31.2314 31.3068L31.2658 31.3167Z"
            fill="#FBBC04" />
        <path
            d="M56.5925 0.971436C61.7953 2.66141 66.2127 6.22474 68.8632 11.4285L56.3961 26.445C56.3961 26.445 58.2269 24.2842 58.2269 21.1917C58.2269 16.5876 54.3788 13.1135 50.2264 13.1135C46.2851 13.1135 44.042 15.9929 44.042 15.9929C44.9991 13.7925 54.8893 1.71978 56.6072 0.976392L56.5925 0.971436Z"
            fill="#4285F4" />
        <path
            d="M34.1125 7.57759C37.2146 3.85072 42.653 -0.00500488 50.1626 -0.00500488C53.7898 -0.00500488 56.5434 0.966361 56.5434 0.966361L44.0273 15.9829C43.183 15.5205 34.947 9.04456 34.1125 7.55777V7.57759Z"
            fill="#1A73E8" />
        <path
            d="M31.2657 31.3166C31.2657 31.3166 29.219 27.2131 29.219 21.3056C29.219 15.7054 31.3885 10.799 34.1273 7.6272L44.042 16.0523L31.2805 31.3166H31.2657Z"
            fill="#EA4335" />
    </g>
    <defs>
        <clipPath id="clip0_415:488">
            <rect width="99" height="90" fill="currentColor" />
        </clipPath>
    </defs>
</svg>