<?xml version="1.0" standalone="no"?>
<!DOCTYPE svg PUBLIC "-//W3C//DTD SVG 20010904//EN"
 "http://www.w3.org/TR/2001/REC-SVG-20010904/DTD/svg10.dtd">
<svg version="1.0" xmlns="http://www.w3.org/2000/svg"
 width="260.000000pt" height="260.000000pt" viewBox="0 0 260.000000 260.000000"
 preserveAspectRatio="xMidYMid meet">
<metadata>
Created by potrace 1.14, written by Peter Selinger 2001-2017
</metadata>
<g transform="translate(0.000000,260.000000) scale(0.100000,-0.100000)"
fill="#000000" stroke="none">
<path d="M0 1300 l0 -1300 1300 0 1300 0 0 1300 0 1300 -1300 0 -1300 0 0
-1300z m1473 1138 c45 -11 87 -21 92 -22 6 -1 15 -4 20 -7 6 -4 28 -12 50 -19
22 -7 58 -24 80 -37 22 -13 48 -26 58 -30 9 -3 17 -9 17 -14 0 -5 6 -9 14 -9
8 0 16 -3 18 -7 2 -5 29 -30 60 -56 32 -26 66 -61 78 -76 l20 -29 -35 4 c-19
2 -51 6 -71 8 -20 2 -32 0 -28 -4 5 -5 27 -10 49 -12 22 -1 50 -7 62 -14 l23
-11 -25 -11 c-14 -6 -25 -17 -25 -24 0 -15 -39 -42 -47 -34 -3 3 5 14 18 25
13 11 21 22 17 26 -9 9 -48 -31 -48 -49 0 -8 -13 -19 -30 -25 -33 -11 -41 -21
-12 -16 9 2 29 4 45 4 15 1 26 6 25 13 -2 6 11 12 32 12 19 1 35 6 35 12 0 6
7 17 15 25 19 18 57 46 48 35 -4 -5 8 -32 26 -60 44 -68 91 -192 111 -294 13
-64 16 -113 11 -210 -6 -140 -9 -168 -19 -178 -4 -4 -7 -14 -7 -23 0 -21 -60
-157 -95 -217 -25 -42 -28 -56 -27 -138 0 -59 -2 -82 -7 -66 -5 14 -7 36 -4
50 4 23 3 24 -10 7 -8 -9 -27 -17 -42 -17 -27 0 -28 0 -10 20 10 11 16 20 14
20 -3 0 -23 -19 -44 -42 -22 -24 -28 -32 -12 -19 15 14 27 21 27 17 0 -19 -24
-47 -52 -62 -29 -15 -30 -15 -25 1 5 11 3 14 -6 8 -14 -9 -47 -5 -63 8 -16 13
-37 -15 -36 -49 0 -30 -15 -55 -29 -46 -5 3 -9 0 -9 -6 0 -7 -6 -10 -14 -7 -8
3 -22 -3 -32 -14 -17 -19 -19 -19 -31 -3 -7 10 -13 28 -13 40 0 13 -4 25 -10
29 -5 3 -8 11 -6 18 1 7 1 8 -2 4 -6 -12 -31 13 -26 27 3 7 -3 19 -13 27 -16
13 -17 12 -4 -3 7 -10 9 -18 3 -18 -10 0 -39 59 -34 72 1 5 -4 7 -10 5 -13 -2
-42 50 -52 96 -5 22 -4 27 6 21 7 -4 4 2 -6 14 -11 12 -26 22 -35 22 -11 0
-12 3 -4 8 8 5 7 16 -4 42 -9 19 -16 58 -16 85 0 49 0 49 -4 7 -4 -39 -6 -42
-21 -31 -14 11 -15 11 -4 -1 6 -8 12 -20 12 -28 0 -8 8 -21 18 -28 16 -12 15
-13 -4 -8 -32 8 -41 -35 -11 -58 12 -9 29 -19 37 -21 8 -3 -2 -3 -22 -1 -31 3
-38 0 -44 -18 -4 -15 -1 -26 12 -36 18 -13 18 -14 -2 -8 -19 6 -21 2 -23 -50
-1 -39 2 -53 10 -49 7 5 9 1 5 -13 -5 -14 -1 -21 15 -25 20 -5 19 -27 -2 -27
-6 0 -7 5 -4 10 3 5 -1 10 -9 10 -12 0 -16 -11 -16 -51 0 -27 4 -48 9 -45 5 4
7 -3 4 -13 -6 -22 58 -71 92 -71 11 0 27 -5 35 -10 11 -8 -10 -10 -70 -9 -47
1 -100 -2 -117 -6 -26 -6 -33 -4 -33 8 0 24 -16 29 -35 11 -9 -9 -19 -13 -22
-10 -10 10 -12 36 -3 36 8 0 4 29 -7 60 -4 8 -5 18 -5 23 1 4 -2 7 -7 7 -5 0
-7 10 -4 23 4 18 3 19 -7 7 -9 -12 -11 -10 -7 12 2 17 -1 29 -9 32 -8 3 -14
19 -14 35 0 24 -4 29 -17 25 -17 -5 -17 -5 0 6 10 6 17 23 17 40 0 30 14 41
23 18 4 -10 6 -10 6 -1 1 6 -3 15 -9 18 -5 3 -10 17 -10 31 0 14 4 22 10 19 6
-3 10 -1 10 5 0 6 5 8 12 4 7 -4 8 -3 4 5 -4 6 -11 9 -14 7 -4 -2 -13 7 -19
21 -10 21 -10 24 3 19 12 -5 14 -1 9 17 -4 12 -14 28 -23 35 -11 8 -12 12 -3
12 9 0 12 11 9 35 -2 19 1 37 7 39 6 3 6 5 -1 5 -6 1 -18 -7 -25 -16 -10 -11
-10 -14 -1 -9 20 12 14 -18 -12 -57 -13 -19 -21 -38 -18 -42 4 -4 0 -6 -8 -5
-8 1 -22 2 -30 1 -12 -1 -13 -3 -1 -10 11 -7 8 -12 -13 -26 -14 -9 -23 -21
-20 -26 3 -5 0 -9 -6 -9 -6 0 -8 -4 -5 -10 3 -6 1 -10 -5 -10 -6 0 -8 -4 -5
-10 3 -5 1 -19 -6 -31 -9 -18 -9 -21 3 -16 8 3 21 1 29 -4 10 -6 6 -9 -16 -9
-32 -1 -58 -17 -63 -39 -2 -8 -12 -27 -23 -42 -10 -15 -19 -37 -19 -49 0 -11
-4 -19 -9 -16 -5 3 -8 -2 -7 -12 1 -12 -8 -18 -27 -20 -17 -2 -25 -8 -21 -14
4 -7 2 -8 -5 -4 -9 6 -9 11 0 22 6 8 8 14 3 14 -5 0 0 7 10 15 11 8 17 15 13
15 -3 0 0 15 7 33 7 17 11 38 9 45 -3 6 0 12 6 12 6 0 8 6 5 14 -3 8 -1 17 5
20 18 12 0 37 -21 30 -14 -4 -18 -3 -13 6 4 7 17 9 31 6 26 -7 31 3 12 23 -11
11 -9 11 12 1 22 -12 24 -12 12 3 -11 13 -10 17 6 26 11 6 23 7 27 3 5 -4 5
-1 1 6 -4 7 -13 9 -19 5 -13 -7 19 33 46 58 23 22 22 25 -13 23 -36 -2 -38 3
-7 16 21 8 21 9 -6 9 -44 1 -23 17 25 19 29 1 37 -1 24 -7 -13 -5 -16 -10 -9
-14 6 -4 18 -1 26 7 8 8 17 13 20 10 3 -3 8 0 13 7 4 8 3 10 -4 5 -7 -4 -12
-2 -12 5 0 8 -15 9 -53 5 -42 -6 -56 -4 -67 9 -11 14 -14 14 -25 -1 -14 -20
-31 -3 -21 21 7 18 -5 19 -39 3 -28 -13 -30 -19 -13 -36 8 -8 9 -12 1 -12 -22
0 0 -40 32 -60 40 -25 48 -58 21 -82 -10 -10 -23 -18 -27 -18 -5 0 -6 -7 -3
-15 11 -27 -20 -16 -63 23 -23 20 -44 49 -48 64 -7 27 -43 58 -68 58 -8 0 -20
-7 -27 -15 -7 -8 -24 -21 -39 -28 -14 -7 -36 -20 -48 -27 -18 -12 -24 -12 -38
0 -21 17 -85 146 -85 170 0 9 -3 20 -7 24 -4 3 -8 12 -9 19 -2 7 -5 23 -9 37
-5 23 -24 191 -25 216 0 6 24 19 54 29 34 12 52 23 49 31 -2 6 0 15 6 19 6 3
11 15 11 26 0 10 5 19 11 19 6 0 8 -9 4 -20 -4 -14 -2 -20 8 -20 22 0 27 11
16 33 -13 24 4 39 39 34 12 -2 22 0 22 6 0 5 9 7 20 4 11 -3 23 -1 26 5 3 5
15 7 26 4 20 -5 20 -4 -1 15 -17 16 -19 24 -11 39 13 24 12 24 40 0 12 -11 27
-17 33 -13 6 4 8 0 4 -9 -4 -11 -1 -15 11 -13 9 2 23 4 30 4 7 1 11 5 7 10 -3
5 -1 12 4 15 5 4 12 2 16 -4 3 -5 15 -10 25 -10 10 0 23 -7 28 -16 8 -15 10
-15 15 0 4 9 18 21 32 26 28 11 32 25 10 34 -8 3 -15 1 -15 -4 0 -14 -88 -12
-149 2 -43 10 -51 15 -51 34 0 21 4 23 29 18 16 -3 32 -1 35 5 4 5 14 8 24 5
13 -5 14 -4 3 4 -18 13 -5 33 17 26 14 -5 15 -4 2 5 -12 9 -9 11 15 11 22 0
26 3 16 9 -9 6 -22 6 -32 1 -17 -10 -25 -4 -44 30 -8 13 -7 13 11 0 19 -14 19
-14 0 7 -10 12 -21 22 -25 21 -20 -2 -29 4 -26 20 1 9 0 11 -2 4 -5 -14 -38
-8 -60 10 -9 7 -13 7 -13 0 0 -6 -14 -13 -31 -17 -45 -10 -93 36 -53 52 9 3
20 0 24 -7 12 -20 50 -23 57 -5 5 14 7 13 20 -2 13 -17 14 -17 5 1 -5 11 -22
20 -38 22 -27 3 -28 2 -10 -11 18 -14 18 -14 -1 -12 -12 0 -19 8 -19 23 0 12
5 20 10 18 6 -2 27 -5 47 -7 20 -2 44 -11 54 -20 19 -19 35 -22 35 -6 0 5 -5
7 -12 3 -8 -5 -9 -2 -5 10 4 10 3 15 -3 11 -6 -3 -10 -2 -10 4 0 6 -12 10 -27
10 -35 -1 -82 6 -89 14 -10 10 61 5 74 -6 8 -6 12 -6 12 1 0 6 7 9 15 6 8 -4
15 -1 15 5 0 6 -3 10 -7 10 -5 -1 -33 -1 -63 0 l-55 2 77 72 c76 72 182 143
247 165 44 16 48 10 17 -23 -14 -15 -23 -31 -20 -36 3 -5 -2 -9 -12 -9 -12 0
-14 -4 -7 -12 6 -7 9 -22 7 -33 -6 -30 6 -75 19 -75 25 -1 50 -29 42 -47 -5
-10 -9 -24 -11 -31 -1 -8 -10 -19 -20 -26 -9 -7 -18 -23 -19 -37 -1 -13 -3
-27 -4 -31 0 -4 -9 -5 -18 -1 -10 3 -1 -6 20 -21 21 -14 47 -26 57 -26 11 0
36 -8 56 -17 33 -16 36 -16 45 -1 6 11 16 15 26 11 11 -4 14 -3 9 5 -4 7 -14
12 -22 12 -18 0 -18 4 2 41 14 29 17 30 33 15 10 -9 25 -16 34 -16 9 0 16 -3
16 -7 -3 -21 2 -33 15 -33 8 0 18 -5 22 -12 4 -7 3 -8 -4 -4 -8 5 -12 0 -12
-13 0 -11 -5 -23 -10 -26 -7 -4 -8 3 -4 21 5 21 4 25 -6 19 -9 -5 -11 -4 -6 3
9 14 -29 52 -51 52 -16 -1 -16 -2 1 -11 15 -9 16 -13 5 -20 -11 -7 -10 -9 5
-9 13 0 16 -5 12 -17 -4 -10 2 -24 15 -36 18 -17 25 -18 40 -9 16 10 19 9 19
-4 0 -8 -3 -13 -7 -11 -5 3 -21 0 -36 -6 -25 -11 -21 -12 40 -11 37 1 70 -2
73 -6 3 -4 11 -2 17 5 10 11 9 14 -5 14 -61 3 -68 5 -70 28 -2 27 1 28 22 7 9
-8 16 -11 16 -5 0 5 15 8 33 7 17 -2 39 2 47 8 13 10 13 9 1 -6 -8 -11 -9 -18
-3 -18 6 0 14 5 17 10 3 6 11 10 16 10 6 0 7 -5 3 -12 -5 -8 -2 -9 12 -3 10 4
29 10 42 12 42 10 32 21 -16 17 l-47 -3 48 9 c63 11 75 23 17 15 -43 -6 -44
-6 -25 11 20 16 20 16 -1 12 -17 -4 -20 -2 -17 13 5 19 -5 24 -36 19 -13 -1
-13 1 -2 14 12 15 16 15 31 1 9 -8 32 -15 51 -15 26 0 30 3 19 10 -8 5 -27 10
-42 10 -16 0 -28 3 -28 8 0 12 14 29 30 36 8 3 5 4 -8 2 -12 -2 -29 2 -36 10
-21 20 -28 17 -16 -6 6 -11 15 -18 21 -15 5 4 9 1 9 -4 0 -10 -9 -12 -37 -11
-5 1 -7 10 -5 20 2 11 -2 20 -7 20 -6 0 -11 4 -11 9 0 5 57 10 127 10 70 1
129 4 132 6 2 3 -80 5 -182 5 -174 0 -188 -1 -207 -20 -16 -16 -22 -18 -26 -6
-3 8 -13 12 -25 9 -12 -4 -19 0 -19 9 0 18 69 57 94 53 10 -2 33 11 54 33 20
20 29 33 19 29 -9 -3 -22 0 -29 7 -13 14 -21 11 -97 -38 -43 -27 -96 -43 -85
-24 3 5 -3 12 -15 15 -14 4 -25 21 -37 62 -19 63 -20 91 -4 101 7 4 11 10 10
14 -10 57 244 84 413 44z m-433 -242 c0 -3 -4 -8 -10 -11 -5 -3 -10 -1 -10 4
0 6 5 11 10 11 6 0 10 -2 10 -4z m-423 -52 c-3 -3 -12 -4 -19 -1 -8 3 -5 6 6
6 11 1 17 -2 13 -5z m513 -14 c0 -5 -5 -10 -11 -10 -5 0 -7 5 -4 10 3 6 8 10
11 10 2 0 4 -4 4 -10z m168 0 c-1 -18 4 -19 18 -5 15 15 17 14 28 -7 7 -13 8
-25 4 -26 -4 -2 -6 -7 -4 -11 3 -4 -4 -8 -15 -8 -11 -1 -17 2 -14 8 4 5 1 9
-4 9 -6 0 -11 -4 -11 -10 0 -5 -5 -10 -11 -10 -5 0 -7 6 -3 13 5 8 2 7 -10 -2
-14 -12 -19 -12 -29 -1 -9 10 -9 11 1 6 7 -4 12 -1 12 8 0 8 6 17 13 19 6 3 2
6 -10 6 -13 1 -23 5 -23 10 0 5 13 8 29 7 16 0 29 -3 29 -6z m732 0 c0 -5 -8
-10 -17 -10 -15 0 -16 2 -3 10 19 12 20 12 20 0z m-1423 -17 c3 -7 -4 -9 -16
-6 -12 3 -18 9 -15 15 7 11 26 6 31 -9z m619 -51 c-11 -10 -14 3 -7 38 l6 35
3 -33 c2 -19 1 -36 -2 -40z m-88 34 c-7 -8 -16 -12 -21 -9 -11 7 2 23 19 23
12 0 12 -2 2 -14z m43 -33 c-12 -20 -14 -14 -5 12 4 9 9 14 11 11 3 -2 0 -13
-6 -23z m789 13 c0 -2 -7 -7 -16 -10 -8 -3 -12 -2 -9 4 6 10 25 14 25 6z
m-694 -33 c13 -17 13 -17 14 0 0 18 20 25 20 6 0 -6 9 -9 19 -6 11 3 22 -1 25
-9 4 -11 -7 -13 -50 -12 -56 2 -71 9 -59 28 9 14 16 12 31 -7z m-256 -19 c0
-8 -4 -12 -10 -9 -5 3 -10 10 -10 16 0 5 5 9 10 9 6 0 10 -7 10 -16z m917 10
c-3 -3 -12 -4 -19 -1 -8 3 -5 6 6 6 11 1 17 -2 13 -5z m-590 -39 c-5 -13 -67
-37 -67 -25 0 5 9 10 20 10 25 0 26 17 3 23 -10 2 -3 4 14 3 18 0 32 -5 30
-11z m-608 -12 c-3 -35 1 -54 11 -48 6 3 10 2 10 -3 0 -14 -25 -22 -48 -15
-11 2 -23 0 -27 -6 -3 -6 -3 -11 2 -10 23 4 33 -3 33 -26 0 -22 -4 -25 -40
-25 -22 0 -40 4 -40 9 0 6 -15 12 -32 14 l-33 4 37 1 c20 1 39 6 42 11 3 4
-13 7 -37 5 -23 -1 -33 -1 -22 2 36 9 74 26 73 33 -2 22 4 41 13 41 6 0 9 -7
5 -15 -3 -8 -3 -15 0 -15 3 0 12 7 20 15 10 10 11 15 3 15 -9 0 -8 4 1 15 17
20 32 19 29 -2z m661 9 c0 -15 -11 -21 -27 -15 -12 5 -12 7 -1 14 17 11 28 11
28 1z m-757 -69 c-7 -2 -19 -2 -25 0 -7 3 -2 5 12 5 14 0 19 -2 13 -5z m-16
-69 c-3 -3 -12 -4 -19 -1 -8 3 -5 6 6 6 11 1 17 -2 13 -5z m517 -680 c16 -6
12 -24 -5 -24 -6 0 -8 4 -5 9 4 5 0 12 -6 14 -7 3 -10 6 -6 6 3 1 13 -2 22 -5z
m284 -23 c3 -8 -1 -12 -9 -9 -7 2 -15 10 -17 17 -3 8 1 12 9 9 7 -2 15 -10 17
-17z m-270 -28 c11 -11 11 -13 -2 -13 -9 0 -16 5 -16 10 0 6 -9 10 -19 10 -10
0 -21 7 -24 15 -5 12 -2 12 21 2 15 -6 33 -17 40 -24z m273 2 c19 -8 27 -14
19 -14 -14 0 -72 28 -59 29 4 0 22 -7 40 -15z m-707 -34 c7 -12 -4 -71 -14
-71 -4 0 -12 12 -19 26 -9 20 -9 30 0 40 13 16 25 18 33 5z m716 -21 c0 -4
-11 -5 -25 -2 -14 2 -25 8 -25 12 0 4 11 5 25 2 14 -2 25 -8 25 -12z m40 -60
c0 -5 -2 -10 -4 -10 -3 0 -8 5 -11 10 -3 6 -1 10 4 10 6 0 11 -4 11 -10z
m-742 -66 c0 -24 -3 -44 -8 -44 -4 0 -22 16 -40 36 l-31 36 28 18 c37 23 51
10 51 -46z m393 49 c13 -15 11 -16 -19 -10 -29 6 -34 4 -43 -20 -10 -26 0 -42
26 -43 6 0 2 -5 -7 -11 -10 -5 -18 -20 -18 -32 -1 -24 -26 -64 -35 -55 -3 3
-1 18 5 33 14 36 -5 91 -34 100 -13 4 -16 8 -8 12 6 2 10 8 8 12 -3 4 8 8 24
9 16 1 39 6 52 11 32 13 34 13 49 -6z m-420 -89 c19 -21 20 -24 5 -18 -14 5
-17 4 -12 -4 5 -8 0 -12 -13 -12 -13 0 -18 6 -16 18 2 9 4 23 4 30 1 17 4 16
32 -14z m737 -1 c7 -7 12 -13 9 -13 -7 0 -67 31 -67 35 0 7 46 -10 58 -22z
m-8 -33 c0 -5 -2 -10 -4 -10 -3 0 -8 5 -11 10 -3 6 -1 10 4 10 6 0 11 -4 11
-10z m510 -15 c-7 -8 -9 -15 -4 -15 4 0 -3 -11 -16 -25 -22 -23 -60 -35 -60
-17 1 15 28 42 42 42 9 0 21 7 28 15 7 8 15 15 17 15 3 0 0 -7 -7 -15z m-563
-20 c0 -8 -4 -12 -9 -9 -4 3 -8 9 -8 15 0 5 4 9 8 9 5 0 9 -7 9 -15z m-373
-37 c-2 -24 -3 -46 -3 -50 -1 -10 -13 -10 -30 1 -10 7 -11 13 -1 31 12 23 12
23 -44 17 -31 -3 -56 -2 -56 2 0 4 8 7 18 8 52 5 98 15 107 24 5 5 10 9 10 9
1 0 0 -19 -1 -42z m-51 -15 c-7 -2 -19 -2 -25 0 -7 3 -2 5 12 5 14 0 19 -2 13
-5z m-193 -30 c0 -16 12 -17 28 -1 8 8 12 9 12 1 0 -6 -7 -19 -16 -28 -9 -8
-14 -21 -11 -28 5 -13 -4 -14 -150 -9 -62 2 -63 2 -63 31 0 24 5 29 30 33 17
3 33 1 36 -4 6 -9 54 0 68 13 14 13 66 7 66 -8z m780 -25 c0 -10 -31 -14 -70
-9 l-35 5 29 5 c40 8 76 7 76 -1z m487 -30 c-3 -8 -6 -5 -6 6 -1 11 2 17 5 13
3 -3 4 -12 1 -19z m-240 -14 c-3 -3 -12 -4 -19 -1 -8 3 -5 6 6 6 11 1 17 -2
13 -5z m-83 -123 c9 -14 -9 -55 -41 -92 -16 -19 -35 -53 -41 -75 -18 -62 -16
-71 11 -48 13 10 11 7 -4 -7 -15 -15 -34 -49 -43 -77 -33 -98 -117 -205 -146
-187 -31 19 14 110 94 190 31 31 50 61 61 97 8 28 15 53 15 55 0 3 -12 -4 -27
-15 -16 -11 -45 -25 -67 -32 -32 -10 -40 -10 -52 2 -46 45 110 196 203 198 17
0 34 -4 37 -9z m-966 -53 c3 -15 -5 -18 -52 -18 -56 0 -56 0 -56 -30 0 -29 2
-30 45 -30 33 0 45 -4 45 -15 0 -11 -12 -15 -45 -15 -43 0 -45 -1 -45 -30 0
-30 0 -30 56 -30 47 0 55 -3 52 -17 -3 -15 -16 -19 -76 -21 l-72 -3 0 116 0
116 72 -3 c60 -2 73 -6 76 -20z m110 -45 c15 -35 30 -63 33 -63 3 0 18 29 34
65 20 47 32 65 46 65 18 0 19 -9 19 -115 0 -108 -1 -115 -20 -115 -18 0 -20 7
-21 68 l0 67 -22 -52 c-12 -29 -28 -53 -35 -53 -7 0 -23 24 -36 53 l-24 52 -1
-67 c-1 -53 -4 -68 -16 -68 -12 0 -15 20 -15 116 0 100 2 115 16 112 9 -2 28
-31 42 -65z m321 53 c32 -18 12 -30 -49 -31 -38 0 -45 -3 -45 -20 0 -14 11
-22 44 -32 56 -16 71 -29 71 -64 0 -51 -52 -79 -119 -63 -26 7 -36 14 -36 29
0 13 5 19 15 16 8 -2 32 -6 52 -9 29 -3 39 0 45 13 7 21 -20 45 -52 45 -34 0
-56 23 -57 59 -2 60 69 91 131 57z m193 -91 c43 -117 44 -125 19 -125 -12 0
-21 9 -25 25 -6 22 -12 25 -50 25 -38 0 -45 -3 -50 -25 -4 -17 -13 -25 -27
-25 -13 0 -19 5 -16 13 2 6 21 58 42 115 28 76 42 102 54 100 10 -2 30 -41 53
-103z m628 75 c0 -5 -4 -10 -10 -10 -5 0 -10 5 -10 10 0 6 5 10 10 10 6 0 10
-4 10 -10z m-245 -60 c3 -5 13 -6 21 -3 14 5 15 3 5 -15 -15 -28 2 -29 28 -3
12 12 27 17 45 14 25 -5 25 -6 9 -19 -17 -13 -17 -15 0 -25 9 -5 17 -19 17
-31 0 -23 -45 -88 -61 -88 -16 0 -10 37 9 51 14 11 15 11 5 -1 -7 -8 -13 -19
-13 -24 1 -6 10 0 21 14 13 16 17 26 9 28 -7 3 -6 10 6 23 15 17 15 18 -11 25
-19 5 -23 9 -14 15 7 4 10 11 6 15 -4 4 -17 -2 -30 -14 -24 -23 -47 -29 -47
-12 0 5 -6 8 -12 6 -7 -1 -10 -1 -5 1 10 6 9 43 -2 43 -5 0 -11 -5 -13 -12 -2
-6 -12 -12 -22 -14 -17 -2 -17 -2 0 17 19 21 39 25 49 9z m188 -20 c5 -21 -7
-28 -18 -10 -5 8 -12 7 -23 -2 -12 -9 -11 -6 2 10 24 27 32 28 39 2z m-224
-23 c-2 -1 -13 -9 -24 -17 -19 -14 -19 -14 -6 3 7 9 18 17 24 17 6 0 8 -1 6
-3z"/>
<path d="M940 2140 l-25 -6 25 -7 c26 -7 34 -4 29 11 -2 4 -15 5 -29 2z"/>
<path d="M1753 2143 c9 -2 23 -2 30 0 6 3 -1 5 -18 5 -16 0 -22 -2 -12 -5z"/>
<path d="M1845 2113 c11 -3 26 -10 34 -17 12 -9 13 -8 6 3 -6 11 -4 13 9 8 10
-4 15 -3 11 3 -3 6 -23 9 -43 9 -22 -1 -29 -3 -17 -6z"/>
<path d="M1920 2105 c0 -16 16 -20 24 -6 3 5 -1 11 -9 15 -9 3 -15 0 -15 -9z"/>
<path d="M1810 2091 c8 -6 18 -7 24 -4 5 3 6 1 2 -5 -11 -17 9 -15 24 3 11 13
7 15 -26 15 -28 0 -35 -3 -24 -9z"/>
<path d="M790 2076 c0 -17 25 -27 46 -19 14 5 12 8 -7 19 -31 17 -39 17 -39 0z"/>
<path d="M1480 2076 c0 -2 7 -7 16 -10 8 -3 12 -2 9 4 -6 10 -25 14 -25 6z"/>
<path d="M900 2061 c0 -10 19 -25 25 -20 1 2 -3 10 -11 17 -8 7 -14 8 -14 3z"/>
<path d="M1777 2059 c8 -8 16 -8 30 0 16 9 14 10 -11 11 -22 0 -27 -3 -19 -11z"/>
<path d="M1692 2051 c-30 -5 -31 -7 -14 -18 12 -7 24 -8 33 -2 8 5 25 9 39 9
20 0 22 2 10 10 -16 10 -18 10 -68 1z"/>
<path d="M870 2046 c0 -2 7 -7 16 -10 8 -3 12 -2 9 4 -6 10 -25 14 -25 6z"/>
<path d="M1750 2015 c-9 -10 -9 -15 -1 -15 6 0 11 5 11 11 0 5 5 7 12 3 7 -4
8 -3 4 4 -9 15 -11 15 -26 -3z"/>
<path d="M1629 2011 c20 -13 -3 -24 -50 -24 -22 0 -36 -4 -32 -9 3 -6 -3 -7
-17 -3 -15 5 -20 4 -16 -4 4 -6 2 -11 -5 -11 -10 0 -10 -3 -2 -11 8 -8 18 -6
38 7 15 10 46 19 69 20 23 1 41 7 41 13 0 7 7 16 15 21 11 7 6 10 -20 10 -23
0 -30 -3 -21 -9z"/>
<path d="M947 1983 c-3 -4 7 -17 22 -27 l26 -20 -20 25 c-11 13 -21 25 -21 27
-1 2 -4 0 -7 -5z"/>
<path d="M1785 1980 c-3 -5 -1 -10 4 -10 6 0 11 5 11 10 0 6 -2 10 -4 10 -3 0
-8 -4 -11 -10z"/>
<path d="M1860 1970 c0 -5 7 -7 15 -4 8 4 15 8 15 10 0 2 -7 4 -15 4 -8 0 -15
-4 -15 -10z"/>
<path d="M1717 1947 l-42 -18 45 6 c25 4 63 10 85 14 l40 7 -43 5 c-28 3 -57
-2 -85 -14z"/>
<path d="M891 1941 c-8 -5 -15 -19 -16 -30 -1 -11 2 -18 7 -15 15 10 58 -6 58
-20 0 -8 7 -17 16 -20 14 -5 15 -4 5 8 -14 17 4 26 57 26 33 0 35 1 17 13 -18
11 -56 26 -110 41 -11 3 -26 2 -34 -3z"/>
<path d="M1313 1928 c-3 -6 -1 -8 5 -4 6 3 17 -1 25 -9 21 -20 30 -19 19 2
-11 20 -39 26 -49 11z"/>
<path d="M1957 1925 c-11 -7 -25 -11 -33 -8 -8 3 -20 1 -27 -5 -6 -6 -28 -12
-47 -15 -19 -2 -27 -2 -17 0 9 2 17 9 17 15 0 5 -7 7 -16 4 -9 -3 -34 -9 -57
-13 -42 -7 -42 -7 -12 -14 17 -4 49 -7 73 -8 40 -1 56 -14 30 -24 -10 -4 -10
-7 0 -18 9 -10 15 -11 20 -3 4 6 14 14 22 17 12 4 12 6 -1 6 -27 1 -31 29 -6
37 31 11 38 12 77 19 45 8 56 19 22 22 -15 1 -35 -4 -45 -12z"/>
<path d="M1383 1910 c3 -13 -1 -21 -14 -25 -10 -4 -19 -11 -19 -18 0 -8 3 -8
12 1 8 8 15 9 25 1 10 -9 13 -4 13 25 0 20 -5 36 -11 36 -6 0 -9 -9 -6 -20z"/>
<path d="M1615 1914 c-23 -9 -32 -9 -37 -1 -5 8 -8 4 -8 -8 0 -16 -2 -17 -10
-5 -5 8 -12 11 -16 7 -17 -16 12 -27 46 -17 19 6 52 10 73 10 21 0 36 4 33 9
-10 15 -50 18 -81 5z"/>
<path d="M1105 1909 c-5 -7 5 -8 32 -3 51 9 54 14 10 14 -20 0 -39 -5 -42 -11z"/>
<path d="M1465 1911 c-9 -16 9 -20 23 -5 10 12 10 14 -2 14 -8 0 -17 -4 -21
-9z"/>
<path d="M1062 1893 c2 -9 15 -20 30 -24 20 -5 25 -4 22 6 -3 7 -14 11 -25 8
-21 -6 -27 12 -6 20 7 3 4 6 -6 6 -12 1 -17 -5 -15 -16z"/>
<path d="M1975 1899 c-17 -8 -16 -8 7 -4 15 3 30 1 33 -5 4 -6 -5 -10 -19 -10
-24 0 -25 -1 -9 -19 18 -22 43 -17 43 8 0 17 -18 42 -29 40 -4 0 -15 -5 -26
-10z"/>
<path d="M1641 1880 c10 -7 49 -2 49 5 0 2 -14 3 -31 3 -17 -1 -25 -4 -18 -8z"/>
<path d="M1466 1849 c1 -19 -2 -28 -9 -26 -7 3 -10 11 -9 18 2 8 0 10 -4 6
-11 -11 -14 -38 -4 -32 5 3 11 1 15 -5 11 -18 25 -11 25 13 0 13 5 28 10 35 6
6 7 10 4 7 -4 -3 -12 -1 -19 5 -8 7 -11 1 -9 -21z"/>
<path d="M1518 1873 c7 -3 16 -2 19 1 4 3 -2 6 -13 5 -11 0 -14 -3 -6 -6z"/>
<path d="M1930 1865 c7 -8 20 -14 29 -14 13 1 13 2 -1 6 -10 2 -18 9 -18 14 0
5 -5 9 -11 9 -8 0 -8 -5 1 -15z"/>
<path d="M1708 1853 c7 -3 16 -2 19 1 4 3 -2 6 -13 5 -11 0 -14 -3 -6 -6z"/>
<path d="M986 1835 c-4 -12 3 -15 29 -15 18 0 36 4 39 9 3 4 -7 6 -22 4 -21
-4 -24 -2 -12 6 13 9 11 11 -6 11 -12 0 -24 -7 -28 -15z"/>
<path d="M1130 1831 c8 -5 18 -7 22 -5 4 3 5 -2 1 -11 -4 -13 -7 -14 -14 -3
-6 10 -11 10 -20 1 -15 -15 -9 -24 19 -26 11 0 19 -5 16 -9 -3 -4 -16 -3 -30
2 -33 13 -33 13 -29 -7 1 -10 8 -17 14 -15 6 1 11 -2 11 -8 0 -5 9 -10 20 -10
11 0 20 -4 20 -10 0 -5 7 -7 15 -4 8 4 15 12 15 19 0 20 92 26 108 6 6 -8 12
-10 12 -4 0 7 -5 15 -10 18 -6 4 -8 10 -5 15 3 5 -9 3 -25 -3 -25 -10 -33 -9
-41 3 -8 11 -12 12 -16 3 -2 -7 -9 -13 -14 -13 -5 0 -8 6 -6 13 1 6 -4 11 -10
10 -7 -2 -14 2 -14 7 -1 6 -2 15 -3 22 0 6 -12 13 -26 15 -18 2 -21 1 -10 -6z
m47 -83 c-3 -7 -5 -2 -5 12 0 14 2 19 5 13 2 -7 2 -19 0 -25z"/>
<path d="M1557 1828 c2 -5 -7 -6 -21 -2 -19 5 -26 2 -26 -9 0 -8 -6 -18 -12
-21 -7 -3 5 -3 27 0 30 4 36 3 25 -5 -13 -9 -13 -11 3 -11 10 0 17 8 17 20 0
17 7 20 41 20 36 0 40 -2 29 -15 -15 -19 -6 -19 45 0 24 9 32 14 20 15 -11 1
-50 4 -87 8 -37 5 -64 4 -61 0z"/>
<path d="M1924 1833 c4 -5 21 -8 37 -8 16 0 29 3 29 8 0 4 -16 7 -37 7 -20 0
-33 -3 -29 -7z"/>
<path d="M1085 1819 c-11 -16 -1 -19 13 -3 7 8 8 14 3 14 -5 0 -13 -5 -16 -11z"/>
<path d="M1765 1820 c-24 -6 -18 -8 33 -9 65 -1 73 -6 45 -27 -28 -21 2 -16
41 7 20 12 36 22 36 24 0 2 -15 3 -32 2 -18 -1 -46 1 -63 5 -16 3 -43 2 -60
-2z"/>
<path d="M1025 1800 c6 -10 4 -12 -8 -7 -10 3 -17 2 -17 -3 0 -6 18 -9 40 -8
38 1 47 7 18 12 -7 1 -19 6 -27 10 -10 7 -12 6 -6 -4z"/>
<path d="M1310 1794 c0 -5 5 -16 11 -24 8 -12 12 -12 16 -2 4 10 8 10 17 -2
10 -14 14 -14 39 -1 25 13 29 13 34 -1 3 -9 1 -39 -6 -67 -12 -53 -6 -66 29
-67 12 0 12 -2 2 -9 -10 -6 -10 -10 3 -21 14 -11 19 -7 16 13 0 4 5 7 12 8 6
0 -6 9 -28 20 l-40 20 34 -7 c23 -4 31 -3 27 5 -4 6 -15 11 -25 11 -10 0 -18
6 -18 14 0 11 9 14 31 10 l31 -4 -29 11 c-21 9 -25 14 -15 20 10 6 11 9 2 9
-7 0 -13 6 -13 14 0 11 6 12 35 2 19 -7 38 -15 41 -19 10 -10 24 -9 24 2 0 5
-20 14 -45 20 -25 6 -45 16 -45 21 0 13 1 13 45 -6 20 -8 42 -13 48 -10 7 2 4
5 -6 5 -10 1 -15 6 -12 11 4 6 -6 10 -23 10 -16 0 -32 3 -36 7 -13 14 -41 12
-59 -5 -11 -9 -21 -12 -25 -7 -4 6 -14 11 -22 11 -8 1 -23 5 -32 9 -10 4 -18
3 -18 -1z"/>
<path d="M1710 1787 c0 -7 11 -14 26 -15 14 -1 22 2 19 8 -4 6 7 8 27 5 29 -4
30 -4 8 4 -38 14 -80 13 -80 -2z"/>
<path d="M1060 1759 c0 -5 5 -7 10 -4 6 3 10 8 10 11 0 2 -4 4 -10 4 -5 0 -10
-5 -10 -11z"/>
<path d="M1164 1702 c5 -8 -2 -12 -19 -12 -20 0 -26 -4 -22 -14 3 -8 1 -17 -6
-20 -7 -4 -1 -4 13 -1 14 2 34 5 45 6 14 1 10 4 -10 9 -24 6 -26 8 -7 9 24 1
29 15 10 27 -7 4 -8 3 -4 -4z"/>
<path d="M1500 1687 c0 -8 6 -17 14 -20 9 -4 13 0 12 11 -3 20 -26 29 -26 9z"/>
<path d="M1065 1650 c-13 -6 -15 -9 -5 -9 8 0 22 4 30 9 18 12 2 12 -25 0z"/>
<path d="M1150 1640 c-11 -7 -7 -10 18 -10 17 0 32 5 32 10 0 13 -30 13 -50 0z"/>
<path d="M1295 1641 c-3 -5 -2 -12 3 -15 5 -3 9 1 9 9 0 17 -3 19 -12 6z"/>
<path d="M1350 1630 c0 -5 5 -10 11 -10 5 0 7 5 4 10 -3 6 -8 10 -11 10 -2 0
-4 -4 -4 -10z"/>
<path d="M1855 1590 c-33 -28 -64 -59 -69 -70 -5 -11 -16 -20 -25 -21 -9 0 -6
-4 9 -10 13 -6 28 -15 32 -22 5 -8 12 -6 26 6 23 21 32 22 32 2 0 -8 -6 -15
-13 -15 -8 0 -27 -16 -43 -35 -26 -31 -56 -47 -53 -27 4 26 -3 34 -26 30 -31
-6 -31 -1 -3 29 l22 24 -44 -3 c-33 -2 -44 1 -42 10 5 25 -40 -9 -51 -39 -6
-16 -17 -29 -25 -29 -7 0 -10 -4 -7 -10 12 -20 14 -50 3 -56 -7 -5 -8 -2 -3 6
6 10 4 12 -9 7 -10 -4 -20 -7 -23 -7 -3 0 0 -6 6 -14 10 -12 8 -13 -10 -9 -15
4 -20 3 -15 -5 4 -7 14 -12 23 -12 10 0 14 -6 10 -20 -3 -11 -1 -23 5 -26 15
-10 -14 -25 -34 -18 -10 3 -18 0 -18 -7 0 -9 -3 -9 -14 0 -12 10 -13 8 -9 -9
3 -11 8 -18 11 -15 7 7 32 -52 32 -76 0 -10 -6 -17 -12 -15 -7 1 -10 1 -6 -1
4 -3 10 -3 13 -1 6 4 73 -99 81 -124 3 -10 13 -18 22 -18 12 0 13 -3 5 -8 -16
-10 4 -82 22 -82 18 0 14 30 -4 31 -12 0 -11 3 4 9 18 7 19 8 3 15 -19 7 -25
25 -9 25 5 0 16 -6 23 -14 11 -11 18 -11 31 -1 15 11 14 13 -11 25 -17 8 -22
14 -14 17 9 4 3 12 -17 24 -34 20 -35 53 -4 78 17 13 17 13 1 8 -21 -7 -48 1
-48 15 0 5 3 7 8 5 4 -3 27 0 52 6 33 9 57 24 84 55 21 23 50 45 65 49 14 3
31 10 38 15 7 5 14 5 17 0 10 -17 154 -7 175 12 9 9 25 16 33 16 21 0 68 56
68 80 0 24 -46 60 -76 60 -13 0 -41 7 -61 15 -21 8 -52 16 -70 18 -37 4 -90
36 -60 36 11 1 17 9 17 24 0 13 5 28 12 35 9 9 8 12 -5 12 -9 0 -17 5 -17 10
0 6 5 10 11 10 5 0 7 5 4 10 -3 6 -2 10 3 10 6 0 12 7 16 15 9 25 -6 17 -69
-35z m-308 -367 c2 -6 -4 -13 -13 -17 -14 -5 -15 -4 -5 8 8 10 9 16 1 19 -6 3
-5 4 2 3 6 -1 13 -7 15 -13z m33 -88 c14 -8 19 -14 10 -14 -8 0 -24 6 -34 14
-25 19 -9 19 24 0z m37 -69 c-3 -7 0 -19 6 -25 6 -6 7 -11 1 -11 -21 0 -33 22
-21 36 16 17 20 17 14 0z m45 -54 c-10 -3 -10 -7 0 -20 12 -13 10 -14 -9 -3
-25 13 -21 43 5 34 11 -5 12 -8 4 -11z"/>
<path d="M1044 1618 c-3 -4 8 -8 25 -8 16 0 32 4 36 9 3 5 -8 9 -25 9 -17 -1
-33 -5 -36 -10z"/>
<path d="M1530 1620 c8 -5 20 -10 25 -10 6 0 3 5 -5 10 -8 5 -19 10 -25 10 -5
0 -3 -5 5 -10z"/>
<path d="M1153 1604 c-18 -8 -33 -19 -33 -24 0 -6 -10 -11 -22 -11 -13 -1 -5
-5 17 -9 27 -5 32 -8 15 -9 -14 -1 -32 -6 -40 -11 -10 -7 1 -8 35 -4 28 4 52
9 55 11 2 2 5 20 6 39 0 18 0 34 0 33 -1 0 -16 -7 -33 -15z"/>
<path d="M1290 1600 c0 -5 5 -10 11 -10 5 0 7 5 4 10 -3 6 -8 10 -11 10 -2 0
-4 -4 -4 -10z"/>
<path d="M1410 1589 c0 -12 -8 -28 -17 -35 -17 -13 -17 -14 0 -8 15 5 17 -1
17 -55 0 -35 4 -61 10 -61 13 0 32 48 24 61 -3 5 6 4 20 -3 14 -6 26 -15 26
-20 0 -4 5 -8 11 -8 8 0 7 6 -2 16 -12 15 -11 16 11 10 l25 -7 -28 21 c-15 12
-25 26 -22 31 4 5 0 6 -8 3 -17 -6 -65 31 -54 42 4 5 12 2 17 -6 5 -7 23 -15
41 -16 19 -1 35 -7 37 -13 2 -5 9 -8 17 -5 9 4 6 12 -12 30 -24 25 -39 32 -28
14 3 -6 -1 -13 -11 -17 -12 -4 -23 2 -36 20 -24 33 -38 35 -38 6z m55 -75 l30
-25 -32 15 c-17 9 -35 20 -38 26 -11 18 10 10 40 -16z m-38 -56 c-2 -13 -4 -5
-4 17 -1 22 1 32 4 23 2 -10 2 -28 0 -40z"/>
<path d="M1525 1590 c-3 -5 -1 -10 4 -10 6 0 11 5 11 10 0 6 -2 10 -4 10 -3 0
-8 -4 -11 -10z"/>
<path d="M1295 1571 c-3 -5 -1 -12 5 -16 5 -3 10 1 10 9 0 18 -6 21 -15 7z"/>
<path d="M1351 1554 c0 -11 3 -14 6 -6 3 7 2 16 -1 19 -3 4 -6 -2 -5 -13z"/>
<path d="M1048 1533 c7 -3 16 -2 19 1 4 3 -2 6 -13 5 -11 0 -14 -3 -6 -6z"/>
<path d="M1120 1515 c-27 -7 -39 -14 -30 -18 9 -3 4 -6 -12 -6 -15 -1 -30 -6
-33 -12 -7 -10 38 -6 88 8 9 2 17 0 17 -6 0 -6 -9 -11 -19 -11 -11 0 -23 -5
-27 -12 -5 -8 -2 -9 11 -5 9 4 23 3 30 -3 9 -8 14 0 18 32 3 24 5 43 4 43 -1
1 -22 -4 -47 -10z"/>
<path d="M1515 1516 c11 -9 28 -23 38 -32 11 -8 21 -13 24 -11 2 3 -8 14 -24
24 -37 26 -63 39 -38 19z"/>
<path d="M1546 1518 c3 -4 9 -8 15 -8 5 0 9 4 9 8 0 5 -7 9 -15 9 -8 0 -12 -4
-9 -9z"/>
<path d="M1325 1470 c-3 -6 1 -7 9 -4 9 3 16 2 16 -4 0 -5 -15 -8 -35 -5 -22
3 -35 0 -35 -7 0 -6 6 -8 13 -5 6 4 3 0 -7 -9 -10 -8 -23 -13 -27 -10 -5 3 -9
0 -9 -6 0 -7 7 -10 15 -7 8 4 17 2 20 -3 4 -6 2 -10 -3 -10 -6 0 -13 -7 -16
-16 -5 -13 -4 -14 7 -6 8 7 17 9 20 5 4 -3 7 1 7 10 0 10 7 17 16 17 9 0 12
-5 8 -12 -6 -10 -4 -10 7 0 17 15 79 16 79 0 0 -6 3 -8 6 -5 11 11 -16 36 -32
30 -8 -3 -22 -2 -31 1 -14 6 -15 9 -4 16 8 4 11 15 8 24 -7 18 -23 21 -32 6z
m5 -40 c0 -5 -7 -10 -16 -10 -8 0 -12 5 -9 10 3 6 10 10 16 10 5 0 9 -4 9 -10z"/>
<path d="M1247 1463 c-11 -11 -8 -20 8 -20 8 0 15 6 15 14 0 14 -12 17 -23 6z"/>
<path d="M1450 1460 c0 -5 5 -10 10 -10 6 0 10 5 10 10 0 6 -4 10 -10 10 -5 0
-10 -4 -10 -10z"/>
<path d="M1065 1450 c-3 -5 -1 -10 4 -10 6 0 11 5 11 10 0 6 -2 10 -4 10 -3 0
-8 -4 -11 -10z"/>
<path d="M1502 1452 c-22 -7 -22 -7 -4 -21 19 -13 19 -14 1 -32 -20 -20 -34
-25 -24 -9 3 6 0 10 -7 10 -9 0 -9 3 2 10 11 7 11 10 2 10 -7 0 -10 5 -7 10 3
6 -1 10 -9 10 -20 0 -20 -2 7 -55 12 -24 28 -45 35 -45 6 0 11 3 10 8 -3 14
22 62 32 62 5 0 10 5 10 10 0 6 -7 10 -16 10 -10 0 -14 6 -10 15 3 8 4 15 3
14 -1 -1 -12 -4 -25 -7z"/>
<path d="M1077 1423 c-27 -9 -43 -19 -37 -23 7 -5 -1 -12 -21 -19 -18 -6 -30
-13 -28 -16 3 -2 23 2 44 10 47 17 65 18 65 6 0 -4 -13 -12 -29 -17 l-29 -9
25 -19 c15 -11 23 -14 19 -8 -4 7 -2 12 3 12 6 0 11 6 11 13 0 7 9 29 20 50
23 42 23 42 -43 20z m38 -13 c-3 -5 -18 -10 -33 -10 -21 0 -24 2 -12 10 20 13
53 13 45 0z"/>
<path d="M1280 1360 c-9 -6 -10 -10 -3 -10 6 0 14 -12 16 -27 l4 -28 2 28 c1
30 30 39 32 10 0 -13 2 -14 6 -4 3 8 -2 20 -13 28 -21 15 -24 16 -44 3z"/>
<path d="M1010 1330 c-13 -9 -13 -10 0 -9 8 0 24 4 35 9 l20 9 -20 0 c-11 0
-27 -4 -35 -9z"/>
<path d="M1214 1308 l-19 -23 23 19 c21 18 27 26 19 26 -2 0 -12 -10 -23 -22z"/>
<path d="M1490 1309 c0 -19 46 -56 57 -46 3 4 -5 11 -18 16 l-24 10 25 2 c18
1 20 3 7 6 -9 2 -15 8 -12 13 3 4 -4 10 -15 13 -15 4 -20 0 -20 -14z"/>
<path d="M1049 1293 c-14 -7 -36 -14 -47 -16 -12 -2 -25 -6 -28 -10 -10 -10
89 4 100 13 17 16 0 25 -25 13z"/>
<path d="M1350 1290 c6 -11 13 -20 16 -20 2 0 0 9 -6 20 -6 11 -13 20 -16 20
-2 0 0 -9 6 -20z"/>
<path d="M1282 1267 c-1 -10 -6 -16 -11 -13 -13 8 -19 -14 -14 -51 4 -21 11
-33 21 -33 14 0 14 -1 1 -12 -19 -16 -43 -94 -33 -110 4 -7 3 -8 -4 -4 -8 5
-12 -5 -12 -33 0 -30 5 -43 20 -51 16 -9 20 -8 20 5 0 8 -6 15 -13 15 -7 0
-13 9 -14 20 -2 25 24 27 30 3 4 -14 5 -13 6 4 0 12 -4 25 -9 28 -6 4 -8 11
-4 16 3 5 9 7 14 4 4 -3 10 4 13 15 4 15 0 20 -14 20 -20 0 -26 15 -9 25 6 3
10 1 10 -6 0 -7 3 -9 6 -6 4 4 1 13 -6 22 -10 12 -9 16 4 21 21 8 21 43 0 51
-11 4 -12 8 -4 13 6 4 10 22 7 41 -2 19 -5 26 -5 16z"/>
<path d="M1221 1178 c-14 -23 -14 -23 8 -4 22 20 25 26 13 26 -4 0 -13 -10
-21 -22z"/>
<path d="M1178 944 c-2 -19 0 -37 4 -40 4 -3 8 13 8 35 0 51 -6 53 -12 5z"/>
<path d="M1706 939 c4 -7 0 -9 -13 -5 -14 4 -20 2 -20 -9 0 -20 6 -19 42 5 28
19 29 20 7 20 -14 0 -21 -4 -16 -11z"/>
<path d="M1244 906 c-12 -65 36 -216 68 -216 5 0 6 5 3 10 -11 19 6 32 23 18
14 -10 15 -10 5 2 -7 8 -13 22 -13 31 0 10 -6 19 -12 22 -9 2 -13 22 -12 58 1
39 0 47 -6 29 l-8 -25 -1 27 c-1 35 -18 78 -30 78 -6 0 -13 -15 -17 -34z"/>
<path d="M1301 904 c0 -11 3 -14 6 -6 3 7 2 16 -1 19 -3 4 -6 -2 -5 -13z"/>
<path d="M1682 901 c-31 -16 -31 -18 -16 -39 8 -12 25 -22 38 -22 12 0 27 -5
34 -12 9 -9 12 -8 12 5 0 9 -7 17 -16 17 -9 0 -12 5 -8 11 5 9 -1 10 -20 5
-17 -4 -25 -3 -22 3 3 5 0 12 -6 15 -7 3 -1 4 15 2 15 -2 27 -2 27 0 0 1 3 9
6 18 7 19 -1 19 -44 -3z"/>
<path d="M1736 904 c-4 -10 -1 -14 6 -12 15 5 23 28 10 28 -5 0 -13 -7 -16
-16z"/>
<path d="M1640 799 c0 -5 5 -7 10 -4 6 3 10 8 10 11 0 2 -4 4 -10 4 -5 0 -10
-5 -10 -11z"/>
<path d="M1607 539 c-79 -42 -147 -133 -119 -161 12 -12 86 18 137 57 38 30
75 83 75 109 0 22 -45 20 -93 -5z"/>
<path d="M1528 232 c-51 -54 -78 -100 -78 -132 0 -29 14 -25 46 13 27 32 89
156 81 163 -2 2 -24 -18 -49 -44z"/>
<path d="M1303 425 c-11 -34 -10 -35 14 -35 22 0 24 3 18 28 -10 43 -21 45
-32 7z"/>
</g>
</svg>
